<svg id="eLdw5xWit9n1" xmlns="http://www.w3.org/2000/svg" xmlns:xlink="http://www.w3.org/1999/xlink" viewBox="0 0 193 216" shape-rendering="geometricPrecision" text-rendering="geometricPrecision" project-id="724710895e714e2e9e399f122b8a8a3a" export-id="1513054afc32489c92a668bae3ccbac9" cached="false"><g style="isolation:isolate" clip-path="url(#eLdw5xWit9n5)"><g><path style="isolation:isolate" d="M55.3,109.9c-1.1-.2-2-.3-2.7-.6-5.5-2.9-10.9-5.9-16.4-8.6-6.685875-3.251182-13.78499-5.572693-21.1-6.9-4.8-.9-9.6-1.9-14.2-2.8-1.1-1.5.8-2.7-.2-4c1.3-.9,2.5-.7,3.8-.5c2.2.5,4.5,1,6.7,1.5c3.8.8,7.6,1,11.4.7c6.3-.5,12.6-1,18.9-1.8c4.6-.6,9.1-1.7,13.3-3.9c2-1,4.1-1.6,6.1-2.6c1.4-.8,2.7-1.8,4.1-2.6c5.6-3.1,10.8-6.7,15.4-11.3C86,61,90.3,54.5,95,48.3c5.3-7.1,7.7-15.4,9.7-23.8c1.6-7,3.6-13.9,4.3-21.1.1-.9.5-1.7.8-2.6.533,0,1.067-.033,1.6-.1.1.3.3.6.3.8-.2,2.6-.5,5.2-.5,7.8c0,5.6.1,11.2.1,16.8c0,6.4.1,12.8.1,19.3-.1,6.1,1,11.9,3.4,17.5.5,1.2.9,2.5,1.1,3.8.6,3.8,2.4,7,5,9.8c2.2,2.3,4.1,4.7,6.3,7c2.7,3,6.1,5.1,9.6,6.9c3,1.533,5.9,3.167,8.7,4.9c3.8,2.3,8,3.6,12.3,4.7c3.9.9,7.9,1.8,11.8,2.9c4.1,1.1,8.2,1.4,12.3,1.8c3.3.4,6.6.8,10.4,1.2-.6.6-.9,1.1-1.1,1.1-7.8.2-15.7.3-23.4.7-4.3.3-8.5.9-12.6,1.7-4.9.9-9.8,2-14.5,3.3-5.2,1.4-10.3,3.2-15.3,5-4.9,1.7-8.9,4.8-12.9,8.2-3.3,3-4.9,7.1-7.5,10.5-3.6,4.6-5.3,10.2-6.8,15.8-2.5,9.5-5,19.1-7.1,28.7-2.1,9.8-3.7,19.7-4.4,29.7-.1,1.2-.6,2.3-1,3.5-.2.3-.7.6-1,.8-.9-.7-1.7-1.4-2.4-2.1-1-.8-1.2-1.9-1.1-3.1.2-6.9.6-13.8.8-20.7.1-5.1.4-10.3.1-15.4-.4-6.1-1.2-12.2-2.2-18.2-.6-3.7-1.9-7.4-3-11-1.3-4.6-3.5-8.8-5.2-13.1-1-2.6-2.8-4.8-3.6-7.4-.2-.4-.7-.6-1-.9s-.7-.5-.9-.8c-1.5-4-5.3-6-7.6-9.4-.2-.3-.8-.4-1.2-.6-1-.6-2.2-1-2.1-2.3Zm8.6-29.4c.9.3,1.7.4,1.9-1.2-.8.5-1.3.8-1.9,1.2Z" clip-rule="evenodd" fill="#f7f7f7" fill-rule="evenodd"/></g><clipPath id="eLdw5xWit9n5"><path d="M0,0h193v215h-193L0,0Z" transform="translate(0 0.5)" fill="#fff"/></clipPath></g></svg>
