<svg width="678" height="67" viewBox="0 0 678 67" fill="none" xmlns="http://www.w3.org/2000/svg">
<g clip-path="url(#clip0_1330_23)">
<path d="M71.4301 34C69.6806 32.2257 67.5972 30.8153 65.3001 29.85C62.9356 28.8036 60.3757 28.2718 57.7901 28.29H19.3501C18.1549 28.2916 16.9716 28.0536 15.8701 27.59C13.7349 26.6814 12.0331 24.9833 11.1201 22.85C10.6601 21.7442 10.4256 20.5576 10.4301 19.36C10.4229 18.1783 10.6578 17.0076 11.1201 15.92C12.0225 13.7679 13.7256 12.0504 15.8701 11.13C16.9722 10.6696 18.1556 10.4349 19.3501 10.44H72.4001V-9.9976e-06H19.4001C16.8151 -0.0121576 14.2564 0.519339 11.8901 1.55999C9.56724 2.53243 7.4524 3.94119 5.66006 5.70999C3.91146 7.48068 2.50458 9.5588 1.51006 11.84C0.513026 14.227 -0.000366211 16.7881 -0.000366211 19.375C-0.000366211 21.9619 0.513026 24.523 1.51006 26.91C2.51001 29.2055 3.91968 31.2996 5.67006 33.09C7.45227 34.8304 9.54512 36.2211 11.8401 37.19C14.2156 38.1958 16.7704 38.7095 19.3501 38.7H57.7901C58.9857 38.6934 60.17 38.9316 61.2701 39.4C62.3172 39.846 63.2654 40.4952 64.0601 41.31C64.8833 42.1231 65.542 43.0874 66.0001 44.15C66.4711 45.2317 66.7096 46.4002 66.7001 47.58C66.7035 48.7544 66.4737 49.9178 66.0239 51.0028C65.5742 52.0877 64.9134 53.0725 64.0801 53.9C63.291 54.7168 62.3455 55.3664 61.3001 55.81C60.2 56.2784 59.0157 56.5166 57.8201 56.51H5.85446e-05V66.93H57.7901C60.3703 66.9454 62.9263 66.4315 65.3001 65.42C67.5868 64.4578 69.6677 63.066 71.4301 61.32C73.1882 59.5534 74.5963 57.4701 75.5801 55.18C76.5966 52.7762 77.1104 50.1898 77.0901 47.58C77.1075 45.0157 76.5933 42.4756 75.5801 40.12C74.6125 37.827 73.2022 35.7474 71.4301 34Z" fill="#191919"/>
<path d="M157.18 7.08998C155.006 4.89257 152.425 3.1399 149.58 1.92998C146.633 0.639759 143.447 -0.017737 140.23 -1.73543e-05H87.2301V66.93H97.6001V10.43H140.23C142.017 10.4207 143.787 10.7651 145.44 11.4433C147.093 12.1215 148.595 13.1201 149.86 14.3815C151.125 15.6429 152.128 17.1422 152.811 18.793C153.494 20.4438 153.844 22.2135 153.84 24C153.852 25.8431 153.492 27.6697 152.78 29.37C151.378 32.6335 148.796 35.2477 145.55 36.69C143.868 37.4031 142.057 37.7639 140.23 37.75H101.89V48.08H140.23C143.442 48.0984 146.625 47.4586 149.58 46.2C155.326 43.7605 159.901 39.1859 162.34 33.44C163.627 30.474 164.284 27.2731 164.27 24.04C164.288 20.8226 163.63 17.6374 162.34 14.69C161.13 11.8455 159.378 9.26403 157.18 7.08998Z" fill="#191919"/>
<path d="M196.88 1.21C194.078 1.97999 191.389 3.11292 188.88 4.58C186.417 6.04943 184.146 7.8197 182.12 9.85C180.098 11.8768 178.341 14.1515 176.89 16.62C175.441 19.136 174.312 21.8235 173.53 24.62C172.747 27.5114 172.354 30.4944 172.36 33.49V66.93H182.8V33.47C182.778 30.3946 183.391 27.3478 184.6 24.52C185.796 21.7954 187.492 19.3193 189.6 17.22C191.686 15.108 194.166 13.4262 196.9 12.27C199.706 11.0416 202.737 10.4148 205.8 10.43H239V37.7H186.4V48.08H239V66.93H249.43V-2.39549e-06H205.75C202.752 -0.00814296 199.767 0.39906 196.88 1.21Z" fill="#191919"/>
<path d="M278.69 2.66999C274.965 4.35873 271.636 6.81178 268.92 9.86999C266.188 12.9861 264.079 16.5983 262.71 20.51C261.222 24.6812 260.477 29.0813 260.51 33.51C260.489 37.9369 261.23 42.3343 262.7 46.51C264.077 50.4235 266.188 54.0382 268.92 57.16C271.649 60.1919 274.975 62.6262 278.69 64.31C282.674 66.0902 286.997 66.9841 291.36 66.93H334.3V56.51H291.36C288.406 56.5536 285.479 55.9423 282.79 54.72C280.338 53.5609 278.157 51.8981 276.39 49.84C274.606 47.6592 273.234 45.172 272.34 42.5C271.397 39.5936 270.925 36.5554 270.94 33.5C270.918 30.4441 271.391 27.4048 272.34 24.5C273.227 21.8404 274.601 19.3685 276.39 17.21C278.144 15.1253 280.327 13.4437 282.79 12.28C285.471 11.0294 288.402 10.4036 291.36 10.45H334.3V-8.95257e-06H291.36C286.992 -0.0526654 282.666 0.858998 278.69 2.66999Z" fill="#191919"/>
<path d="M405.93 28.28H358.86V38.7H405.93V28.28Z" fill="#191919"/>
<path d="M344.75 66.93H413.93V56.51H355.17V10.43H413.93V0H344.75V66.93Z" fill="#191919"/>
<path d="M488.11 35.12C485.997 32.0178 483.657 29.0765 481.11 26.32C478.167 23.1392 474.999 20.1749 471.63 17.45C468.329 14.7782 464.836 12.3517 461.18 10.19C457.724 8.09586 454.121 6.25439 450.4 4.68C446.954 3.22651 443.391 2.06574 439.75 1.21C436.507 0.432749 433.185 0.0268082 429.85 0L424.66 0V66.93H435.08V10.93C438.759 11.5993 442.354 12.669 445.8 14.12C449.986 15.8084 454.004 17.8876 457.8 20.33C461.877 22.9292 465.718 25.8805 469.28 29.15C472.871 32.41 476.099 36.0477 478.91 40C481.677 43.9012 483.928 48.1428 485.61 52.62C487.272 57.0308 488.119 61.7066 488.11 66.42V66.92H498.53V0H488.11V35.12Z" fill="#191919"/>
<path d="M584.66 9.86998C581.879 6.71887 578.451 4.2056 574.609 2.50211C570.767 0.798622 566.602 -0.054883 562.4 -1.52302e-05H540.47C536.102 -0.0526717 531.776 0.858991 527.8 2.66998C524.066 4.35771 520.727 6.8106 518 9.86998C515.268 12.9882 513.157 16.5996 511.78 20.51C510.304 24.6839 509.566 29.0829 509.6 33.51C509.576 37.9363 510.313 42.3338 511.78 46.51C513.157 50.4235 515.268 54.0382 518 57.16C520.729 60.1918 524.055 62.6262 527.77 64.31C531.754 66.0902 536.077 66.9841 540.44 66.93H562.4C566.741 66.9874 571.042 66.0931 575 64.31C578.686 62.6211 581.982 60.1866 584.68 57.16C587.439 54.0503 589.565 50.4329 590.94 46.51C592.41 42.3343 593.151 37.9369 593.13 33.51C593.157 29.0989 592.416 24.7168 590.94 20.56C589.566 16.6202 587.432 12.9883 584.66 9.86998ZM582.66 33.47C582.67 36.5258 582.194 39.5637 581.25 42.47C580.394 45.1449 579.036 47.6325 577.25 49.8C575.505 51.8638 573.335 53.5281 570.89 54.68C568.235 55.9092 565.336 56.5211 562.41 56.47H540.47C537.516 56.5136 534.59 55.9023 531.9 54.68C529.448 53.5209 527.267 51.8581 525.5 49.8C523.734 47.6153 522.379 45.1284 521.5 42.46C520.557 39.5536 520.085 36.5154 520.1 33.46C520.078 30.4041 520.551 27.3648 521.5 24.46C522.372 21.8041 523.729 19.3324 525.5 17.17C527.258 15.0857 529.444 13.4043 531.91 12.24C534.588 10.9885 537.515 10.3627 540.47 10.41H562.4C565.33 10.3579 568.232 10.9842 570.88 12.24C573.333 13.4018 575.503 15.0841 577.24 17.17C579.034 19.3174 580.392 21.7934 581.24 24.46C582.207 27.3652 582.697 30.408 582.69 33.47H582.66Z" fill="#191919"/>
<path d="M676.43 40.12C674.45 35.5004 670.77 31.8195 666.15 29.84C663.786 28.7936 661.226 28.2618 658.64 28.28H620.2C619.005 28.2827 617.821 28.0446 616.72 27.58C614.592 26.6712 612.9 24.9718 612 22.84C611.537 21.7349 611.299 20.5483 611.3 19.35C611.296 18.1676 611.535 16.9969 612 15.91C612.429 14.8256 613.068 13.8367 613.88 13C614.694 12.1878 615.654 11.5364 616.71 11.08C617.816 10.6201 619.002 10.3855 620.2 10.39H673.2V-9.76089e-06H620.2C617.615 -0.0130536 615.056 0.518481 612.69 1.55999C610.382 2.5332 608.284 3.94225 606.51 5.70999C604.757 7.47728 603.35 9.55622 602.36 11.84C601.35 14.2143 600.837 16.7699 600.85 19.35C600.834 21.9465 601.347 24.519 602.36 26.91C603.36 29.203 604.766 31.2966 606.51 33.09C608.298 34.8283 610.393 36.2187 612.69 37.19C615.066 38.1958 617.62 38.7095 620.2 38.7H658.64C659.833 38.6922 661.014 38.9305 662.11 39.4C663.159 39.8434 664.107 40.4929 664.9 41.31C665.715 42.1262 666.366 43.09 666.82 44.15C667.286 45.2332 667.525 46.4007 667.52 47.58C667.523 48.7752 667.285 49.9588 666.82 51.06C666.364 52.1187 665.712 53.0821 664.9 53.9C664.107 54.7171 663.159 55.3666 662.11 55.81C661.014 56.2795 659.833 56.5178 658.64 56.51H600.85V66.93H658.64C661.217 66.9455 663.77 66.4315 666.14 65.42C668.43 64.4581 670.514 63.0663 672.28 61.32C674.038 59.5534 675.446 57.4701 676.43 55.18C677.442 52.7747 677.955 50.1893 677.94 47.58C677.953 45.0162 677.439 42.4771 676.43 40.12Z" fill="#191919"/>
</g>
<defs>
<clipPath id="clip0_1330_23">
<rect width="677.94" height="66.93" fill="white"/>
</clipPath>
</defs>
</svg>
