<svg id="eBMdG90IotC1" xmlns="http://www.w3.org/2000/svg" xmlns:xlink="http://www.w3.org/1999/xlink" viewBox="0 0 678 67" shape-rendering="geometricPrecision" text-rendering="geometricPrecision" project-id="9ecc1e752f004c519a74ad5a8165181e" export-id="9703428f2ba343b587d5b64e2f87ff8d" cached="false"><g clip-path="url(#eBMdG90IotC13)"><g style="isolation:isolate"><path d="M71.4301,34c-1.7495-1.7743-3.8329-3.1847-6.13-4.15-2.3645-1.0464-4.9244-1.5782-7.51-1.56h-38.44c-1.1952.0016-2.3785-.2364-3.48-.7-2.1352-.9086-3.837-2.6067-4.75-4.74-.46-1.1058-.6945-2.2924-.69-3.49-.0072-1.1817.2277-2.3524.69-3.44.9024-2.1521,2.6055-3.8696,4.75-4.79c1.1021-.4604,2.2855-.6951,3.48-.69h53.05v-10.44001h-53c-2.585-.012148-5.1437.519349-7.51,1.56-2.32286.97244-4.4377,2.3812-6.23004,4.15-1.7486,1.77069-3.15548,3.84881-4.15,6.13001-.997034,2.387-1.510426,4.9481-1.510426,7.535s.513392,5.148,1.510426,7.535c.99995,2.2955,2.40962,4.3896,4.16,6.18c1.78221,1.7404,3.87506,3.1311,6.17004,4.1c2.3755,1.0058,4.9303,1.5195,7.51,1.51h38.44c1.1956-.0066,2.3799.2316,3.48.7c1.0471.446,1.9953,1.0952,2.79,1.91.8232.8131,1.4819,1.7774,1.94,2.84.471,1.0817.7095,2.2502.7,3.43.0034,1.1744-.2264,2.3378-.6762,3.4228-.4497,1.0849-1.1105,2.0697-1.9438,2.8972-.7891.8168-1.7346,1.4664-2.78,1.91-1.1001.4684-2.2844.7066-3.48.7h-57.820041v10.42h57.790041c2.5802.0154,5.1362-.4985,7.51-1.51c2.2867-.9622,4.3676-2.354,6.13-4.1c1.7581-1.7666,3.1662-3.8499,4.15-6.14c1.0165-2.4038,1.5303-4.9902,1.51-7.6.0174-2.5643-.4968-5.1044-1.51-7.46-.9676-2.293-2.3779-4.3726-4.15-6.12Z" fill="#fff"/><path d="M157.18,7.08998c-2.174-2.19741-4.755-3.95008-7.6-5.16-2.947-1.290221-6.133-1.947717-9.35-1.929997h-52.9999v66.930017h10.37v-56.5h42.6299c1.787-.0093,3.557.3351,5.21,1.0133s3.155,1.6768,4.42,2.9382s2.268,2.7607,2.951,4.4115s1.033,3.4205,1.029,5.207c.012,1.8431-.348,3.6697-1.06,5.37-1.402,3.2635-3.984,5.8777-7.23,7.32-1.682.7131-3.493,1.0739-5.32,1.06h-38.34v10.33h38.34c3.212.0184,6.395-.6214,9.35-1.88c5.746-2.4395,10.321-7.0141,12.76-12.76c1.287-2.966,1.944-6.1669,1.93-9.4.018-3.2174-.64-6.4026-1.93-9.35-1.21-2.8445-2.962-5.42597-5.16-7.60002Z" fill="#fffcfc"/><path d="M196.88,1.21c-2.802.76999-5.491,1.90292-8,3.37-2.463,1.46943-4.734,3.2397-6.76,5.27-2.022,2.0268-3.779,4.3015-5.23,6.77-1.449,2.516-2.578,5.2035-3.36,8-.783,2.8914-1.176,5.8744-1.17,8.87v33.44h10.44v-33.46c-.022-3.0754.591-6.1222,1.8-8.95c1.196-2.7246,2.892-5.2007,5-7.3c2.086-2.112,4.566-3.7938,7.3-4.95c2.806-1.2284,5.837-1.8552,8.9-1.84h33.2v27.27h-52.6v10.38h52.6v18.85h10.43v-66.930002h-43.68c-2.998-.008141-5.983.399062-8.87,1.210002Z" fill="#fff"/><path d="M278.69,2.66999c-3.725,1.68874-7.054,4.14179-9.77,7.2-2.732,3.11611-4.841,6.72831-6.21,10.64001-1.488,4.1712-2.233,8.5713-2.2,13-.021,4.4269.72,8.8243,2.19,13c1.377,3.9135,3.488,7.5282,6.22,10.65c2.729,3.0319,6.055,5.4662,9.77,7.15c3.984,1.7802,8.307,2.6741,12.67,2.62h42.94v-10.42h-42.94c-2.954.0436-5.881-.5677-8.57-1.79-2.452-1.1591-4.633-2.8219-6.4-4.88-1.784-2.1808-3.156-4.668-4.05-7.34-.943-2.9064-1.415-5.9446-1.4-9-.022-3.0559.451-6.0952,1.4-9c.887-2.6596,2.261-5.1315,4.05-7.29c1.754-2.0847,3.937-3.7663,6.4-4.93c2.681-1.2506,5.612-1.8764,8.57-1.83h42.94v-10.450009h-42.94c-4.368-.052656-8.694.859007-12.67,2.669999Z" fill="#f8f8f8"/><path d="M405.93,28.28h-47.07v10.42h47.07v-10.42Z" fill="#fff"/><path d="M344.75,66.93h69.18v-10.42h-58.76v-46.08h58.76v-10.43h-69.18v66.93Z" fill="#fff"/><path d="M488.11,35.12c-2.113-3.1022-4.453-6.0435-7-8.8-2.943-3.1808-6.111-6.1451-9.48-8.87-3.301-2.6718-6.794-5.0983-10.45-7.26-3.456-2.09414-7.059-3.93561-10.78-5.51-3.446-1.45349-7.009-2.61426-10.65-3.47-3.243-.777251-6.565-1.183192-9.9-1.21h-5.19v66.93h10.42v-56c3.679.6693,7.274,1.739,10.72,3.19c4.186,1.6884,8.204,3.7676,12,6.21c4.077,2.5992,7.918,5.5505,11.48,8.82c3.591,3.26,6.819,6.8977,9.63,10.85c2.767,3.9012,5.018,8.1428,6.7,12.62c1.662,4.4108,2.509,9.0866,2.5,13.8v.5h10.42v-66.92h-10.42v35.12Z" fill="#fff"/><path d="M584.66,9.86998c-2.781-3.15111-6.209-5.66438-10.051-7.36787s-8.007-2.556993-12.209-2.502125h-21.93c-4.368-.052657-8.694.859006-12.67,2.669995-3.734,1.68773-7.073,4.14062-9.8,7.2-2.732,3.11822-4.843,6.72962-6.22,10.64002-1.476,4.1739-2.214,8.5729-2.18,13-.024,4.4263.713,8.8238,2.18,13c1.377,3.9135,3.488,7.5282,6.22,10.65c2.729,3.0318,6.055,5.4662,9.77,7.15c3.984,1.7802,8.307,2.6741,12.67,2.62h21.96c4.341.0574,8.642-.8369,12.6-2.62c3.686-1.6889,6.982-4.1234,9.68-7.15c2.759-3.1097,4.885-6.7271,6.26-10.65c1.47-4.1757,2.211-8.5731,2.19-13c.027-4.4111-.714-8.7932-2.19-12.95-1.374-3.9398-3.508-7.5717-6.28-10.69002Zm-2,23.60002c.01,3.0558-.466,6.0937-1.41,9-.856,2.6749-2.214,5.1625-4,7.33-1.745,2.0638-3.915,3.7281-6.36,4.88-2.655,1.2292-5.554,1.8411-8.48,1.79h-21.94c-2.954.0436-5.88-.5677-8.57-1.79-2.452-1.1591-4.633-2.8219-6.4-4.88-1.766-2.1847-3.121-4.6716-4-7.34-.943-2.9064-1.415-5.9446-1.4-9-.022-3.0559.451-6.0952,1.4-9c.872-2.6559,2.229-5.1276,4-7.29c1.758-2.0843,3.944-3.7657,6.41-4.93c2.678-1.2515,5.605-1.8773,8.56-1.83h21.93c2.93-.0521,5.832.5742,8.48,1.83c2.453,1.1618,4.623,2.8441,6.36,4.93c1.794,2.1474,3.152,4.6234,4,7.29.967,2.9052,1.457,5.948,1.45,9.01h-.03Z" fill="#fff"/><path d="M676.43,40.12c-1.98-4.6196-5.66-8.3005-10.28-10.28-2.364-1.0464-4.924-1.5782-7.51-1.56h-38.44c-1.195.0027-2.379-.2354-3.48-.7-2.128-.9088-3.82-2.6082-4.72-4.74-.463-1.1051-.701-2.2917-.7-3.49-.004-1.1824.235-2.3531.7-3.44.429-1.0844,1.068-2.0733,1.88-2.91.814-.8122,1.774-1.4636,2.83-1.92c1.106-.4599,2.292-.6945,3.49-.69h53v-10.39001h-53c-2.585-.013044-5.144.518491-7.51,1.56-2.308.97321-4.406,2.38226-6.18,4.15-1.753,1.76729-3.16,3.84623-4.15,6.13001-1.01,2.3743-1.523,4.9299-1.51,7.51-.016,2.5965.497,5.169,1.51,7.56c1,2.293,2.406,4.3866,4.15,6.18c1.788,1.7383,3.883,3.1287,6.18,4.1c2.376,1.0058,4.93,1.5195,7.51,1.51h38.44c1.193-.0078,2.374.2305,3.47.7c1.049.4434,1.997,1.0929,2.79,1.91.815.8162,1.466,1.78,1.92,2.84.466,1.0832.705,2.2507.7,3.43.003,1.1952-.235,2.3788-.7,3.48-.456,1.0587-1.108,2.0221-1.92,2.84-.793.8171-1.741,1.4666-2.79,1.91-1.096.4695-2.277.7078-3.47.7h-57.79v10.42h57.79c2.577.0155,5.13-.4985,7.5-1.51c2.29-.9619,4.374-2.3537,6.14-4.1c1.758-1.7666,3.166-3.8499,4.15-6.14c1.012-2.4053,1.525-4.9907,1.51-7.6.013-2.5638-.501-5.1029-1.51-7.46Z" fill="#fff"/></g><clipPath id="eBMdG90IotC13"><rect width="677.94" height="66.93" rx="0" ry="0" fill="#fff"/></clipPath></g></svg>
